# WaveFront *.obj file (generated by CINEMA 4D)

mtllib ./SoldierMachineGun.mtl

v -0.24468974796584 0.56402751423338 -0.15378482767754
v -0.24468974796584 0.70686978334397 -0.15378482767754
v -0.24468974796584 0.84760420243833 -0.15378482767754
v -0.24468974796584 1.00000000000000 -0.15378482767754
v 0.17914719154139 0.56402751423338 -0.15378482767754
v 0.17914719154139 0.70686978334397 -0.15378482767754
v 0.17914719154139 0.84760420243833 -0.15378482767754
v 0.17914719154139 1.00000000000000 -0.15378482767754
v 0.64865108741009 0.56402751423338 -0.15378482767754
v 0.64865108741009 0.70686978334397 -0.15378482767754
v 0.64865108741009 0.84760420243833 -0.15378482767754
v 0.64865108741009 1.00000000000000 -0.15378482767754
v 1.00000000000000 0.56402751423338 -0.15378482767754
v 1.00000000000000 0.70686978334397 -0.15378482767754
v 1.00000000000000 0.84760420243833 -0.15378482767754
v 1.00000000000000 1.00000000000000 -0.15378482767754
v 1.00000000000000 0.56402751423338 -0.05260373414350
v 1.00000000000000 0.70686978334397 -0.05260373414350
v 1.84700000000000 0.84760420243833 -0.05260373414350
v 1.00000000000000 1.00000000000000 -0.05260373414350
v 1.00000000000000 0.56402751423338 0.04611006010525
v 1.00000000000000 0.70686978334397 0.04611006010525
v 1.84700000000000 0.84760420243833 0.04611006010525
v 1.00000000000000 1.00000000000000 0.04611006010525
v 1.00000000000000 0.56402751423338 0.14129736559423
v 1.00000000000000 0.70686978334397 0.14129736559423
v 1.00000000000000 0.84760420243833 0.14129736559423
v 1.00000000000000 1.00000000000000 0.14129736559423
v 0.64865108741009 0.56402751423338 0.14129736559423
v 0.64865108741009 0.70686978334397 0.14129736559423
v 0.64865108741009 0.84760420243833 0.14129736559423
v 0.64865108741009 1.00000000000000 0.14129736559423
v 0.17914719154139 0.56402751423338 0.14129736559423
v 0.17914719154139 0.70686978334397 0.14129736559423
v 0.17914719154139 0.84760420243833 0.14129736559423
v 0.17914719154139 1.00000000000000 0.14129736559423
v -0.24468974796584 0.56402751423338 0.14129736559423
v -0.24468974796584 0.70686978334397 0.14129736559423
v -0.24468974796584 0.84760420243833 0.14129736559423
v -0.24468974796584 1.00000000000000 0.14129736559423
v -0.24468974796584 0.56402751423338 0.04611006010525
v -0.24468974796584 0.70686978334397 0.04611006010525
v -0.24468974796584 0.84760420243833 0.04611006010525
v -0.24468974796584 1.00000000000000 0.04611006010525
v -0.24468974796584 0.56402751423338 -0.05260373414350
v -0.24468974796584 0.70686978334397 -0.05260373414350
v -0.24468974796584 0.84760420243833 -0.05260373414350
v -0.24468974796584 1.00000000000000 -0.05260373414350
v 0.17914719154139 1.00000000000000 -0.05260373414350
v 0.17914719154139 1.00000000000000 0.04611006010525
v 0.64865108741009 1.00000000000000 -0.05260373414350
v 0.64865108741009 1.00000000000000 0.04611006010525
v 0.17914719154139 0.56402751423338 0.04611006010525
v 0.17914719154139 0.56402751423338 -0.05260373414350
v 0.64865108741009 0.56402751423338 0.04611006010525
v 0.64865108741009 0.56402751423338 -0.05260373414350
v -0.24468974796584 0.50074008408299 -0.15378482767754
v 0.17914719154139 0.50074008408299 -0.15378482767754
v 0.17914719154139 0.50074008408299 0.14129736559423
v -0.24468974796584 0.50074008408299 0.14129736559423
v -0.24468974796584 0.50074008408299 0.04611006010525
v -0.24468974796584 0.50074008408299 -0.05260373414350
v 0.17914719154139 0.50074008408299 0.04611006010525
v 0.17914719154139 0.50074008408299 -0.05260373414350
v 0.05196070726682 1.09700000000000 -0.15378482767754
v 0.17914719154139 1.09700000000000 -0.15378482767754
v 0.17914719154139 1.09700000000000 0.14129736559423
v 0.05196070726682 1.09700000000000 0.14129736559423
v 0.05196070726682 1.09700000000000 0.04611006010525
v 0.05196070726682 1.09700000000000 -0.05260373414350
v 0.17914719154139 1.09700000000000 -0.05260373414350
v 0.17914719154139 1.09700000000000 0.04611006010525
v 0.64865108741009 1.09700000000000 -0.15378482767754
v 0.64865108741009 1.09700000000000 0.14129736559423
v 0.64865108741009 1.09700000000000 -0.05260373414350
v 0.64865108741009 1.09700000000000 0.04611006010525
v -0.47198437504786 0.56402751423338 0.04611006010525
v -0.47198437504786 0.70686978334397 0.04611006010525
v -0.47198437504786 0.56402751423338 -0.05260373414350
v -0.47198437504786 0.70686978334397 -0.05260373414350
v -0.47198437504786 0.84760420243833 0.04611006010525
v -0.47198437504786 1.00000000000000 0.04611006010525
v -0.47198437504786 0.84760420243833 -0.05260373414350
v -0.47198437504786 1.00000000000000 -0.05260373414350
v 0.05196070726682 1.20400000000000 0.04611006010525
v 0.05196070726682 1.20400000000000 -0.05260373414350
v 0.17914719154139 1.20400000000000 -0.05260373414350
v 0.17914719154139 1.20400000000000 0.04611006010525
v -0.24468974796584 0.56402751423338 -0.24478482767754
v -0.24468974796584 0.70686978334397 -0.24478482767754
v -0.24468974796584 0.84760420243833 -0.24478482767754
v -0.24468974796584 1.00000000000000 -0.24478482767754
v 0.17914719154139 0.56402751423338 -0.24478482767754
v 0.17914719154139 0.70686978334397 -0.24478482767754
v 0.17914719154139 0.84760420243833 -0.24478482767754
v 0.17914719154139 1.00000000000000 -0.24478482767754
v 0.17914719154139 0.56402751423338 0.23229736559423
v 0.17914719154139 0.70686978334397 0.23229736559423
v 0.17914719154139 0.84760420243833 0.23229736559423
v 0.17914719154139 1.00000000000000 0.23229736559423
v -0.24468974796584 0.56402751423338 0.23229736559423
v -0.24468974796584 0.70686978334397 0.23229736559423
v -0.24468974796584 0.84760420243833 0.23229736559423
v -0.24468974796584 1.00000000000000 0.23229736559423
v 1.21294604692554 0.70686978334397 -0.15378482767754
v 1.37800000000000 0.84760420243833 -0.15378482767754
v 1.37800000000000 1.00000000000000 -0.15378482767754
v 1.21294604692554 0.70686978334397 -0.05260373414350
v 1.37800000000000 1.00000000000000 -0.05260373414350
v 1.21294604692554 0.70686978334397 0.04611006010525
v 1.37800000000000 1.00000000000000 0.04611006010525
v 1.21294604692554 0.70686978334397 0.14129736559423
v 1.37800000000000 0.84760420243833 0.14129736559423
v 1.37800000000000 1.00000000000000 0.14129736559423
v 1.84700000000000 0.70686978334397 -0.15378482767754
v 1.84700000000000 0.84760420243833 -0.15378482767754
v 1.55566580962052 1.00000000000000 -0.15378482767754
v 1.84700000000000 0.70686978334397 -0.05260373414350
v 1.55566580962052 1.00000000000000 -0.05260373414350
v 1.84700000000000 0.70686978334397 0.04611006010525
v 1.55566580962052 1.00000000000000 0.04611006010525
v 1.84700000000000 0.70686978334397 0.14129736559423
v 1.84700000000000 0.84760420243833 0.14129736559423
v 1.55566580962052 1.00000000000000 0.14129736559423
v 1.48926035859135 0.40823675463254 -0.15378482767754
v 1.48926035859135 0.40823675463254 -0.05260373414350
v 1.48926035859135 0.40823675463254 0.04611006010525
v 1.48926035859135 0.40823675463254 0.14129736559423
v 1.84700000000000 0.47086978334397 -0.15378482767754
v 1.84700000000000 0.47086978334397 -0.05260373414350
v 1.84700000000000 0.47086978334397 0.04611006010525
v 1.84700000000000 0.47086978334397 0.14129736559423
v 1.00000000000000 1.12439255883002 -0.05260373414350
v 1.00000000000000 1.12439255883002 0.04611006010525
v 1.37800000000000 1.07779804016969 -0.05260373414350
v 1.37800000000000 1.07779804016969 0.04611006010525
v 0.21823697472401 0.56402751423338 0.14129736559423
v 0.21858182585807 0.56402751423338 -0.15378482767754
v 0.21834821644250 0.56402751423338 0.04611006010525
v 0.21846357943174 0.56402751423338 -0.05260373414350
v 0.64865108741009 0.01202751423338 0.04611006010525
v 0.64865108741009 0.01202751423338 -0.05260373414350
v 0.21834821644250 0.14613760196807 0.04611006010525
v 0.21846357943174 0.14613760196807 -0.05260373414350
# 144 vertices

vn 0.00000000000000 0.00000000000000 -1.00000000000000
vn 0.00000000000000 0.00000000000000 0.00000000000000
vn 1.00000000000000 0.00000000000000 0.00000000000000
vn 0.46351082318522 0.88609125759719 0.00000000000000
vn 0.46351079978569 0.88609126983738 0.00000000000000
vn 0.00000000000000 0.00000000000000 1.00000000000000
vn -1.00000000000000 0.00000000000000 0.00000000000000
vn 0.00000000000000 1.00000000000000 0.00000000000000
vn 0.00000000000000 -1.00000000000000 0.00000000000000
vn -0.31079125327665 0.95047819379864 0.00000000000000
vn -0.31079122635297 0.95047820260226 0.00000000000000
vn 0.12234002855720 0.99248824547831 0.00000000000000
vn 0.17245672204835 -0.98501709580105 0.00000000000000
vn 0.17245673650633 -0.98501709326975 0.00000000000000
vn -0.73400282959088 -0.67914640995339 0.00000000000000
vn -0.73400285708292 -0.67914638024075 0.00000000000000
vn -0.29758447752965 -0.95469547422583 -0.00017385660814
vn -0.99999931719370 0.00000000000000 -0.00116859408182
# 18 normals

o Cube.1
usemtl MachineGunMat1
f 89//1 90//1 94//1 93//1
f 5//1 6//1 10//1 9//2 138//1
f 9//1 10//1 14//1 13//1
f 90//1 91//1 95//1 94//1
f 6//1 7//1 11//1 10//1
f 10//1 11//1 15//1 14//1
f 91//1 92//1 96//1 95//1
f 7//1 8//1 12//1 11//1
f 13//3 14//3 18//3 17//3
f 17//3 18//3 22//3 21//3
f 21//3 22//3 26//3 25//3
f 115//3 116//3 19//3 118//3
f 118//3 19//3 23//3 120//3
f 120//3 23//3 123//3 122//3
f 116//4 117//4 119//4 19//4
f 19//4 119//4 121//5 23//5
f 23//5 121//5 124//5 123//5
f 25//6 26//6 30//6 29//6
f 29//6 30//6 34//6 33//2 137//6
f 97//6 98//6 102//6 101//6
f 26//6 27//6 31//6 30//6
f 30//6 31//6 35//6 34//6
f 98//6 99//6 103//6 102//6
f 31//6 32//6 36//6 35//6
f 99//6 100//6 104//6 103//6
f 37//7 38//7 42//7 41//7
f 77//7 78//7 80//7 79//7
f 45//7 46//7 2//7 1//7
f 38//7 39//7 43//7 42//7
f 42//7 43//7 47//7 46//7
f 46//7 47//7 3//7 2//7
f 39//7 40//7 44//7 43//7
f 81//7 82//7 84//7 83//7
f 47//7 48//7 4//7 3//7
f 65//8 70//8 71//8 66//8
f 66//8 71//8 75//8 73//8
f 86//8 85//8 88//8 87//8
f 71//8 72//8 76//8 75//8
f 51//8 52//8 24//8 20//8
f 69//8 68//8 67//8 72//8
f 72//8 67//8 74//8 76//8
f 60//9 61//9 63//9 59//9
f 33//9 53//9 139//9 137//9
f 29//9 55//9 21//9 25//9
f 61//9 62//9 64//9 63//9
f 53//9 54//9 140//9 139//9
f 55//9 56//9 17//9 21//9
f 62//9 57//9 58//9 64//9
f 54//9 5//9 138//9 140//9
f 56//9 9//9 13//9 17//9
f 37//6 60//6 59//6 33//6
f 33//3 59//3 63//3 53//3
f 41//7 61//7 60//7 37//7
f 53//3 63//3 64//3 54//3
f 45//7 62//7 61//7 41//7
f 54//3 64//3 58//3 5//3
f 5//1 58//1 57//1 1//1
f 1//7 57//7 62//7 45//7
f 4//2 4//2 8//2
f 8//2 8//2 49//2
f 48//2 48//2 4//2
f 49//2 49//2 50//2
f 44//2 44//2 48//2
f 50//2 50//2 36//2
f 36//2 36//2 40//2
f 40//2 40//2 44//2
f 4//1 65//1 66//1 8//1
f 8//3 66//3 71//3 49//3
f 48//10 70//10 65//11 4//11
f 49//3 71//3 72//3 50//3
f 44//10 69//10 70//10 48//10
f 50//3 72//3 67//3 36//3
f 36//6 67//6 68//6 40//6
f 40//11 68//11 69//10 44//10
f 8//1 66//1 73//1 12//1
f 12//3 73//3 75//3 51//3
f 49//7 71//7 66//7 8//7
f 51//3 75//3 76//3 52//3
f 50//7 72//7 71//7 49//7
f 52//3 76//3 74//3 32//3
f 32//6 74//6 67//6 36//6
f 36//7 67//7 72//7 50//7
f 41//9 77//9 79//9 45//9
f 45//1 79//1 80//1 46//1
f 46//8 80//8 78//8 42//8
f 42//6 78//6 77//6 41//6
f 43//9 81//9 83//9 47//9
f 47//1 83//1 84//1 48//1
f 48//8 84//8 82//8 44//8
f 44//6 82//6 81//6 43//6
f 70//1 86//1 87//1 71//1
f 71//3 87//3 88//3 72//3
f 72//6 88//6 85//6 69//6
f 69//7 85//7 86//7 70//7
f 1//9 89//9 93//9 5//9
f 5//3 93//3 94//3 6//3
f 2//7 90//7 89//7 1//7
f 6//3 94//3 95//3 7//3
f 3//7 91//7 90//7 2//7
f 7//3 95//3 96//3 8//3
f 8//8 96//8 92//8 4//8
f 4//7 92//7 91//7 3//7
f 33//9 97//9 101//9 37//9
f 37//7 101//7 102//7 38//7
f 34//3 98//3 97//3 33//3
f 38//7 102//7 103//7 39//7
f 35//3 99//3 98//3 34//3
f 39//7 103//7 104//7 40//7
f 40//8 104//8 100//8 36//8
f 36//3 100//3 99//3 35//3
f 14//9 105//9 108//9 18//9
f 15//1 106//1 105//1 14//1
f 18//9 108//9 110//9 22//9
f 22//9 110//9 112//9 26//9
f 26//6 112//6 113//6 27//6
f 20//8 109//8 107//8 16//8
f 16//1 107//1 106//1 15//1
f 134//12 136//12 135//12 133//12
f 27//6 113//6 114//6 28//6
f 28//8 114//8 111//8 24//8
f 125//13 129//13 130//14 126//14
f 106//1 116//1 115//1 105//1
f 126//14 130//14 131//14 127//14
f 127//14 131//14 132//14 128//14
f 112//6 122//6 123//6 113//6
f 109//8 119//8 117//8 107//8
f 107//1 117//1 116//1 106//1
f 111//8 121//8 119//8 109//8
f 113//6 123//6 124//6 114//6
f 114//8 124//8 121//8 111//8
f 105//15 125//15 126//15 108//15
f 118//3 130//3 129//3 115//3
f 115//1 129//1 125//1 105//1
f 108//15 126//15 127//16 110//16
f 120//3 131//3 130//3 118//3
f 110//16 127//16 128//16 112//16
f 112//6 128//6 132//6 122//6
f 122//3 132//3 131//3 120//3
f 24//7 134//7 133//7 20//7
f 20//1 133//1 135//1 109//1
f 109//3 135//3 136//3 111//3
f 111//6 136//6 134//6 24//6
f 1 1 1
f 139//9 55//9 29//9 137//9
f 1 1 1
f 144//17 142//17 141//17 143//17
f 138//9 9//9 56//9 140//9
f 140//18 144//18 143//18 139//18
f 139//6 143//6 141//6 55//6
f 55//3 141//3 142//3 56//3
f 56//1 142//1 144//1 140//1

usemtl MachineGunMat2
f 11//1 12//1 16//1 15//1
f 27//6 28//6 32//6 31//6
f 12//8 51//8 20//8 16//8
f 52//8 32//8 28//8 24//8

